<svg height="512pt" viewBox="0 -72 512 512" width="512pt" xmlns="http://www.w3.org/2000/svg"><path d="m464.871094 0h-417.742188c-25.480468 0-47.128906 20.558594-47.128906 47.128906v273.140625c0 26.570313 21.648438 47.128907 47.128906 47.128907h417.742188c25.488281 0 47.128906-20.558594 47.128906-47.128907v-273.140625c0-26.570312-21.648438-47.128906-47.128906-47.128906zm0 0" fill="#d2dce7"/><path d="m464.871094 0h-208.871094v367.398438h208.871094c25.488281 0 47.128906-20.558594 47.128906-47.128907v-273.140625c0-26.570312-21.648438-47.128906-47.128906-47.128906zm0 0" fill="#a1aebc"/><path d="m128 0h128v367.398438h-128zm0 0" fill="#eff6fe"/><path d="m464.871094 0h-80.871094v367.398438h80.871094c25.488281 0 47.128906-20.558594 47.128906-47.128907v-273.140625c0-26.570312-21.648438-47.128906-47.128906-47.128906zm0 0" fill="#d2dce7"/><path d="m424.167969 206.734375h-80.335938c-8.28125 0-15-6.71875-15-15v-176.734375c0-8.285156 6.71875-15 15-15h80.335938c8.28125 0 15 6.714844 15 15v176.734375c0 8.285156-6.71875 15-15 15zm0 0" fill="#1827c6"/><path d="m424.167969 0h-40.167969v206.734375h40.167969c8.28125 0 15-6.71875 15-15v-176.734375c0-8.285156-6.71875-15-15-15zm0 0" fill="#000e5c"/><path d="m168.164062 206.734375h-80.332031c-8.28125 0-15-6.71875-15-15v-176.734375c0-8.285156 6.71875-15 15-15h80.332031c8.285157 0 15 6.714844 15 15v176.734375c0 8.285156-6.714843 15-15 15zm0 0" fill="#5258e3"/><path d="m168.167969 0h-40.167969v206.734375h40.167969c8.28125 0 15-6.71875 15-15v-176.734375c0-8.285156-6.71875-15-15-15zm0 0" fill="#1827c6"/></svg>